<svg xml:space="preserve" viewBox="0 0 100 100" y="0" x="0" xmlns="http://www.w3.org/2000/svg" id="Layer_1" version="1.1" preserveAspectRatio="xMidYMid" width="200" height="200" xmlns:xlink="http://www.w3.org/1999/xlink" style="margin-top:0px;margin-right:0px;margin-bottom:0px;margin-left:0px;display:block;shape-rendering:auto;background-position-x:0%;background-position-y:0%;background-size:auto;background-origin:padding-box;background-clip:border-box;background:scroll rgb(255, 255, 255) none  repeat;width:200px;height:200px;;animation:none"><g class="ldl-scale" style="transform-origin:50px 50px;transform:matrix(0.8, 0, 0, 0.8, 0, 0);;animation:none"><g class="ldl-ani"><g class="ldl-layer"><g class="ldl-ani" style="transform-origin:50px 50px;transform:matrix(1.03, 0, 0, 1.03, 0, 0);animation-duration:1s;animation-timing-function:linear;animation-delay:-0.545455s;animation-iteration-count:infinite;animation-direction:normal;animation-fill-mode:forwards;animation-play-state:paused;animation-name:animate;animation-timeline:auto;animation-range-start:normal;animation-range-end:normal;transform-box:view-box;;animation:none"><path d="M44.1 11.2l-3.8 6.6h19.4l-3.8-6.6z" fill="none" style="stroke-width:1px;fill:none;;animation:none"></path></g></g>
<g class="ldl-layer"><g class="ldl-ani" style="transform-origin:50px 50px;transform:matrix(1.02685, 0, 0, 1.02685, 0, 0);animation-duration:1s;animation-timing-function:linear;animation-delay:-0.590909s;animation-iteration-count:infinite;animation-direction:normal;animation-fill-mode:forwards;animation-play-state:paused;animation-name:animate;animation-timeline:auto;animation-range-start:normal;animation-range-end:normal;transform-box:view-box;;animation:none"><path fill="#e0e0e0" d="M66 82c2.3 0 4.1-1.8 4.1-4V34.8c0-2.2-1.8-4-4-4H66c-2.2 0-4 1.8-4 4V78c0 2.2 1.8 4 4 4z" style="stroke-width:1px;fill:rgb(224, 224, 224);;animation:none"></path></g></g>
<g class="ldl-layer"><g class="ldl-ani" style="transform-origin:50px 50px;transform:matrix(1.01136, 0, 0, 1.01136, 0, 0);animation-duration:1s;animation-timing-function:linear;animation-delay:-0.636364s;animation-iteration-count:infinite;animation-direction:normal;animation-fill-mode:forwards;animation-play-state:paused;animation-name:animate;animation-timeline:auto;animation-range-start:normal;animation-range-end:normal;transform-box:view-box;;animation:none"><path fill="#e0e0e0" d="M50 82c2.3 0 4.1-1.8 4.1-4V34.8c0-2.2-1.8-4-4-4H50c-2.2 0-4 1.8-4 4V78c0 2.2 1.8 4 4 4z" style="stroke-width:1px;fill:rgb(224, 224, 224);;animation:none"></path></g></g>
<g class="ldl-layer"><g class="ldl-ani" style="transform-origin:50px 50px;transform:matrix(0.999091, 0, 0, 0.999091, 0, 0);animation-duration:1s;animation-timing-function:linear;animation-delay:-0.681818s;animation-iteration-count:infinite;animation-direction:normal;animation-fill-mode:forwards;animation-play-state:paused;animation-name:animate;animation-timeline:auto;animation-range-start:normal;animation-range-end:normal;transform-box:view-box;;animation:none"><path fill="#e0e0e0" d="M33.9 82c2.3 0 4.1-1.8 4.1-4V34.8c0-2.2-1.8-4-4-4h-.1c-2.2 0-4 1.8-4 4V78c0 2.2 1.8 4 4 4z" style="stroke-width:1px;fill:rgb(224, 224, 224);;animation:none"></path></g></g>
<g class="ldl-layer"><g class="ldl-ani" style="transform-origin:50px 50px;transform:matrix(0.97821, 0, 0, 0.97821, 0, 0);animation-duration:1s;animation-timing-function:linear;animation-delay:-0.727273s;animation-iteration-count:infinite;animation-direction:normal;animation-fill-mode:forwards;animation-play-state:paused;animation-name:animate;animation-timeline:auto;animation-range-start:normal;animation-range-end:normal;transform-box:view-box;;animation:none"><path fill="none" d="M33.9 82c2.3 0 4.1-1.8 4.1-4V34.8c0-2.2-1.8-4-4-4h-.1c-2.2 0-4 1.8-4 4V78c0 2.2 1.8 4 4 4z" style="stroke-width:1px;fill:none;;animation:none"></path></g></g>
<g class="ldl-layer"><g class="ldl-ani" style="transform-origin:50px 50px;transform:matrix(0.963432, 0, 0, 0.963432, 0, 0);animation-duration:1s;animation-timing-function:linear;animation-delay:-0.772727s;animation-iteration-count:infinite;animation-direction:normal;animation-fill-mode:forwards;animation-play-state:paused;animation-name:animate;animation-timeline:auto;animation-range-start:normal;animation-range-end:normal;transform-box:view-box;;animation:none"><path fill="none" d="M50 82c2.3 0 4.1-1.8 4.1-4V34.8c0-2.2-1.8-4-4-4H50c-2.2 0-4 1.8-4 4V78c0 2.2 1.8 4 4 4z" style="stroke-width:1px;fill:none;;animation:none"></path></g></g>
<g class="ldl-layer"><g class="ldl-ani" style="transform-origin:50px 50px;transform:matrix(0.940882, 0, 0, 0.940882, 0, 0);animation-duration:1s;animation-timing-function:linear;animation-delay:-0.818182s;animation-iteration-count:infinite;animation-direction:normal;animation-fill-mode:forwards;animation-play-state:paused;animation-name:animate;animation-timeline:auto;animation-range-start:normal;animation-range-end:normal;transform-box:view-box;;animation:none"><path fill="none" d="M66 82c2.3 0 4.1-1.8 4.1-4V34.8c0-2.2-1.8-4-4-4H66c-2.2 0-4 1.8-4 4V78c0 2.2 1.8 4 4 4z" style="stroke-width:1px;fill:none;;animation:none"></path></g></g>
<g class="ldl-layer"><g class="ldl-ani" style="transform-origin:50px 50px;transform:matrix(0.924939, 0, 0, 0.924939, 0, 0);animation-duration:1s;animation-timing-function:linear;animation-delay:-0.863636s;animation-iteration-count:infinite;animation-direction:normal;animation-fill-mode:forwards;animation-play-state:paused;animation-name:animate;animation-timeline:auto;animation-range-start:normal;animation-range-end:normal;transform-box:view-box;;animation:none"><path fill="#666" d="M21.9 27.8v53.3c0 4.9 4 8.9 8.9 8.9h38.4c4.9 0 8.9-4 8.9-8.9V25.8H21.9v2zm40.1 7c0-2.2 1.8-4 4-4h.1c2.2 0 4 1.8 4 4V78c0 2.2-1.8 4-4 4H66c-2.2 0-4-1.8-4-4V34.8zm-16 0c0-2.2 1.8-4 4-4s4 1.8 4 4V78c0 2.2-1.8 4-4 4s-4-1.8-4-4V34.8zm-16.1 0c0-2.2 1.8-4 4-4h.1c2.2 0 4 1.8 4 4V78c0 2.2-1.8 4-4 4h-.1c-2.2 0-4-1.8-4-4V34.8z" style="stroke-width:1px;fill:rgb(36, 71, 192);;animation:none"></path></g></g>
<g class="ldl-layer"><g class="ldl-ani" style="transform-origin:50px 50px;transform:matrix(0.914514, 0, 0, 0.914514, 0, 0);animation-duration:1s;animation-timing-function:linear;animation-delay:-0.909091s;animation-iteration-count:infinite;animation-direction:normal;animation-fill-mode:forwards;animation-play-state:paused;animation-name:animate;animation-timeline:auto;animation-range-start:normal;animation-range-end:normal;transform-box:view-box;;animation:none"><path d="M44.1 11.2l-3.8 6.6h19.4l-3.8-6.6z" fill="none" style="stroke-width:1px;fill:none;;animation:none"></path></g></g>
<g class="ldl-layer"><g class="ldl-ani" style="transform-origin:50px 50px;transform:matrix(0.91, 0, 0, 0.91, 0, 0);animation-duration:1s;animation-timing-function:linear;animation-delay:-0.954545s;animation-iteration-count:infinite;animation-direction:normal;animation-fill-mode:forwards;animation-play-state:paused;animation-name:animate;animation-timeline:auto;animation-range-start:normal;animation-range-end:normal;transform-box:view-box;;animation:none"><path fill="#333" d="M44.1 11.2H56l3.8 6.6H67l-3.8-6.6L60.7 7c-.7-1.2-2-2-3.4-2H42.7c-1.4 0-2.7.8-3.4 2l-2.5 4.3-3.8 6.6h7.2l3.9-6.7z" style="stroke-width:1px;fill:rgb(67, 16, 244);;animation:none"></path></g></g>
<g class="ldl-layer"><g class="ldl-ani" style="transform-origin:50px 50px;transform:matrix(0.91, 0, 0, 0.91, 0, 0);animation-duration:1s;animation-timing-function:linear;animation-delay:-1s;animation-iteration-count:infinite;animation-direction:normal;animation-fill-mode:forwards;animation-play-state:paused;animation-name:animate;animation-timeline:auto;animation-range-start:normal;animation-range-end:normal;transform-box:view-box;;animation:none"><path fill="#010101" d="M13.9 21.8c0 2.3 1.8 4.1 4 4.1h64.3c2.2 0 4-1.8 4-4v-.1c0-2.2-1.8-4-4-4H17.9c-2.2 0-4 1.8-4 4z" style="stroke-width:1px;fill:rgb(0, 65, 255);;animation:none"></path></g></g>
<metadata xmlns:d="https://loading.io/stock/"></metadata></g></g>
<STYLE type="text/css">@keyframes animate { 0.00% {transform: translate(0.00px,0.00px) rotate(0.00deg) scale(0.91, 0.91) skew(0deg, 0.00deg) ;opacity: 1.00;}4.00% {transform: translate(0.00px,0.00px) rotate(0.00deg) scale(0.91, 0.91) ;}8.00% {animation-timing-function: cubic-bezier(0.69,0.60,0.35,0.27);transform: translate(0.00px,0.00px) rotate(0.00deg) scale(0.91, 0.91) ;}14.00% {transform: translate(0.00px,0.00px) rotate(0.00deg) scale(0.93, 0.93) ;}18.00% {transform: translate(0.00px,0.00px) rotate(0.00deg) scale(0.94, 0.94) ;}22.00% {animation-timing-function: cubic-bezier(0.67,0.66,0.34,0.33);transform: translate(0.00px,0.00px) rotate(0.00deg) scale(0.96, 0.96) ;}26.00% {transform: translate(0.00px,0.00px) rotate(0.00deg) scale(0.97, 0.97) ;}30.00% {transform: translate(0.00px,0.00px) rotate(0.00deg) scale(0.99, 0.99) ;}34.00% {animation-timing-function: cubic-bezier(0.65,0.71,0.32,0.38);transform: translate(0.00px,0.00px) rotate(0.00deg) scale(1.01, 1.01) ;}40.00% {animation-timing-function: cubic-bezier(0.64,0.74,0.31,0.41);transform: translate(0.00px,0.00px) rotate(0.00deg) scale(1.02, 1.02) ;}46.00% {animation-timing-function: cubic-bezier(0.60,0.91,0.23,0.63);transform: translate(0.00px,0.00px) rotate(0.00deg) scale(1.03, 1.03) ;}50.00% {transform: translate(0.00px,0.00px) rotate(0.00deg) scale(1.03, 1.03) ;}54.00% {transform: translate(0.00px,0.00px) rotate(0.00deg) scale(1.03, 1.03) ;}58.00% {animation-timing-function: cubic-bezier(0.69,0.60,0.35,0.27);transform: translate(0.00px,0.00px) rotate(0.00deg) scale(1.03, 1.03) ;}64.00% {transform: translate(0.00px,0.00px) rotate(0.00deg) scale(1.01, 1.01) ;}68.00% {transform: translate(0.00px,0.00px) rotate(0.00deg) scale(1.00, 1.00) ;}72.00% {animation-timing-function: cubic-bezier(0.67,0.66,0.34,0.33);transform: translate(0.00px,0.00px) rotate(0.00deg) scale(0.98, 0.98) ;}76.00% {animation-timing-function: cubic-bezier(0.66,0.68,0.33,0.35);transform: translate(0.00px,0.00px) rotate(0.00deg) scale(0.97, 0.97) ;}82.00% {animation-timing-function: cubic-bezier(0.65,0.71,0.32,0.38);transform: translate(0.00px,0.00px) rotate(0.00deg) scale(0.94, 0.94) ;}88.00% {animation-timing-function: cubic-bezier(0.65,0.73,0.31,0.40);transform: translate(0.00px,0.00px) rotate(0.00deg) scale(0.92, 0.92) ;}94.00% {animation-timing-function: cubic-bezier(0.63,0.80,0.28,0.48);transform: translate(0.00px,0.00px) rotate(0.00deg) scale(0.91, 0.91) ;}100.00% {animation-timing-function: cubic-bezier(0.63,0.80,0.28,0.48);transform: translate(0.00px,0.00px) rotate(0.00deg) scale(0.91, 0.91) ;} }</STYLE><!-- [ldio] generated by https://loading.io --></svg>